<svg xmlns="http://www.w3.org/2000/svg" height="48" width="48"><path d="M24.15 37.2q.5 0 .775-.2t.275-.55q0-.35-.275-.525-.275-.175-.775-.175-2.1.1-4.575-1.35-2.475-1.45-3.075-4.8-.05-.45-.275-.65-.225-.2-.475-.2-.35 0-.55.275-.2.275-.15.725.75 4 3.675 5.75t5.425 1.7ZM24 41.95q-6 0-9.975-4.125Q10.05 33.7 10.05 27.6q0-4.3 3.475-9.525Q17 12.85 24 6.65q7 6.2 10.475 11.425Q37.95 23.3 37.95 27.6q0 6.1-3.975 10.225T24 41.95Zm0-1.5q5.35 0 8.9-3.675 3.55-3.675 3.55-9.175 0-3.8-3.175-8.6T24 8.7q-6.1 5.5-9.275 10.3-3.175 4.8-3.175 8.6 0 5.5 3.55 9.175 3.55 3.675 8.9 3.675Zm0-16.15Z"/></svg>